<!-- public/google-icon.svg -->
<svg xmlns="http://www.w3.org/2000/svg" width="20" height="20" viewBox="0 0 48 48">
  <path fill="#fbc02d" d="M43.6 20.5H42V20H24v8h11.3c-1.6 4.6-5.9 8-11.3 8-6.6 0-12-5.4-12-12s5.4-12 12-12c3 0 5.7 1.1 7.8 3l5.7-5.7C33.2 6.3 28.8 4 24 4 12.9 4 4 12.9 4 24s8.9 20 20 20c11 0 20-9 20-20 0-1.3-.1-2.7-.4-3.5z"/>
  <path fill="#e53935" d="M6.3 14.7 13.2 20c2.3-4.4 6.8-7.4 11.8-7.4 3 0 5.7 1.1 7.8 3l5.7-5.7C33.2 6.3 28.8 4 24 4c-7.4 0-13.9 4.2-17.7 10.7z"/>
  <path fill="#4caf50" d="M24 44c5.4 0 10.3-2.1 13.9-5.5l-6.4-5.4c-2 1.5-4.5 2.4-7.5 2.4-5.4 0-9.9-3.4-11.5-8.1l-6.3 4.9C9.8 39.4 16.4 44 24 44z"/>
  <path fill="#1565c0" d="M43.6 20.5H42V20H24v8h11.3c-1.3 3.6-4.1 6.4-7.8 7.5l6.4 5.4c-1.3 1.2 7.1-3.8 7.1-13.4 0-1.3-.1-2.7-.4-3.5z"/>
</svg>
